<svg width="50" height="50" viewBox="0 0 50 50" fill="none" xmlns="http://www.w3.org/2000/svg">
<path d="M25 50C38.8071 50 50 38.8071 50 25C50 11.1929 38.8071 0 25 0C11.1929 0 0 11.1929 0 25C0 38.8071 11.1929 50 25 50Z" fill="#F2CD5C"/>
<path d="M24.9999 46.5765C36.9163 46.5765 46.5765 36.9163 46.5765 24.9999C46.5765 13.0835 36.9163 3.42334 24.9999 3.42334C13.0835 3.42334 3.42334 13.0835 3.42334 24.9999C3.42334 36.9163 13.0835 46.5765 24.9999 46.5765Z" fill="white"/>
<path d="M25 43.1204C35.0075 43.1204 43.1203 35.0076 43.1203 25.0001C43.1203 14.9925 35.0075 6.87976 25 6.87976C14.9924 6.87976 6.87964 14.9925 6.87964 25.0001C6.87964 35.0076 14.9924 43.1204 25 43.1204Z" fill="url(#paint0_linear)"/>
<path d="M32.8313 14.5577H17.1688C15.6938 14.5577 14.5579 15.6937 14.5579 17.1687V32.8312C14.5579 34.3046 15.6938 35.4421 17.1688 35.4421H32.8313C34.3047 35.4421 35.4422 34.3046 35.4422 32.8312V17.1687C35.4422 15.6937 34.3047 14.5577 32.8313 14.5577ZM25.0157 20.8984C27.3313 20.8984 29.2094 22.7171 29.2094 24.9609C29.2094 27.2046 27.3329 29.0234 25.0157 29.0234C22.7016 29.0234 20.8235 27.2031 20.8235 24.9609C20.8235 22.7171 22.7016 20.8984 25.0157 20.8984ZM32.8313 32.1781C32.8313 32.6359 32.636 32.8312 32.1782 32.8312H17.8204C17.3641 32.8312 17.1672 32.6359 17.1672 32.1781V23.0421L18.7938 23.3952C18.6188 23.9624 18.525 24.564 18.525 25.1874C18.525 28.6577 21.4313 31.4749 25.0141 31.4749C28.5985 31.4749 31.5032 28.6593 31.5032 25.1874C31.5032 24.564 31.4079 23.964 31.2344 23.3952L32.8297 23.0421V32.1781H32.8313ZM32.8313 20.4312C32.8313 20.7921 32.5391 21.0843 32.1782 21.0843H29.5672C29.2063 21.0843 28.9141 20.7921 28.9141 20.4312V17.8202C28.9141 17.4593 29.2063 17.1671 29.5672 17.1671H32.1782C32.5391 17.1671 32.8313 17.4593 32.8313 17.8202V20.4312Z" fill="white"/>
<defs>
<linearGradient id="paint0_linear" x1="25" y1="43.1204" x2="25" y2="6.87976" gradientUnits="userSpaceOnUse">
<stop stop-color="#FF2D76"/>
<stop offset="1" stop-color="#FB0000"/>
</linearGradient>
</defs>
</svg>
