<svg width="50" height="50" viewBox="0 0 50 50" fill="none" xmlns="http://www.w3.org/2000/svg">
<g clip-path="url(#clip0)">
<path d="M7.62939e-06 25.0002C7.62939e-06 38.8074 11.1928 50.0002 25.0001 50.0002C38.8073 50.0002 50.0001 38.8074 50.0001 25.0002C50.0001 11.193 38.8073 0.000140965 25.0001 0.000140965C11.1928 0.000140965 7.62939e-06 11.193 7.62939e-06 25.0002" fill="#FFAF37"/>
<path d="M29.4269 49.4055L19.968 35.0558L17.5 26.5L10.5 24C18.5 20 34.5 15.0001 34.5 15.0001C34.5 15.0001 36.6052 13.6947 37 14.5001L49.468 28.7566C49.468 28.7566 49.2081 30.8721 48.9361 31.9055C48.9361 31.9055 48.3905 34.0008 47.9465 35.0558C47.9465 35.0558 47.3475 36.5113 46.9756 37.2068C46.9756 37.2068 46.6634 37.8312 46.3296 38.3816C46.3296 38.3816 45.7899 39.2686 45.5593 39.6041C45.5593 39.6041 45.0196 40.3774 44.8308 40.6238C44.8308 40.6238 44.363 41.2401 44.0243 41.6302C44.0243 41.6302 43.5393 42.1954 43.2451 42.5023C43.2451 42.5023 42.9569 42.8162 42.6293 43.132C42.6293 43.132 41.6105 44.0937 41.164 44.4522C41.164 44.4522 39.4756 45.7609 38.685 46.2262C38.685 46.2262 37.5219 46.9282 36.7928 47.2695C36.7928 47.2695 35.3364 47.9352 34.803 48.1274C34.803 48.1274 34.2447 48.3392 33.786 48.4809C33.786 48.4809 33.0733 48.7053 32.655 48.8109C32.655 48.8109 32.2069 48.9312 31.819 49.0134C31.819 49.0134 31.3152 49.1307 30.8181 49.2108C30.8181 49.2108 30.0303 49.3348 29.7955 49.3626L29.4269 49.4055Z" fill="url(#paint0_linear)"/>
<path d="M16.9227 26.8274L19.8888 35.0371C19.8888 35.0371 20.2596 35.8049 20.6568 35.8049C21.0541 35.8049 26.9598 29.6609 26.9598 29.6609L33.5276 16.9754L17.0286 24.7085L16.9227 26.8274Z" fill="#C8DAEA"/>
<path d="M20.8554 28.9328L20.2859 34.9841C20.2859 34.9841 20.0475 36.8379 21.9013 34.9841C23.7551 33.1302 25.5295 31.7002 25.5295 31.7002" fill="#A9C6D8"/>
<path d="M16.9761 27.1206L10.8755 25.1327C10.8755 25.1327 10.1473 24.8371 10.3812 24.1661C10.4295 24.0278 10.5267 23.9102 10.818 23.707C12.1702 22.7649 35.8401 14.257 35.8401 14.257C35.8401 14.257 36.5086 14.032 36.9037 14.1816C37.0842 14.25 37.1994 14.3274 37.2965 14.6096C37.3319 14.7123 37.3522 14.9307 37.3494 15.1481C37.3473 15.3049 37.3283 15.45 37.3143 15.6778C37.1702 18.0041 32.8566 35.3638 32.8566 35.3638C32.8566 35.3638 32.5986 36.3797 31.6738 36.4143C31.3365 36.427 30.9272 36.3585 30.4378 35.9376C28.6232 34.3765 22.3505 30.1611 20.9647 29.2342C20.8863 29.182 20.8642 29.114 20.8509 29.0477C20.8314 28.9503 20.9356 28.8287 20.9356 28.8287C20.9356 28.8287 31.8577 19.1199 32.1484 18.1013C32.1708 18.0223 32.0863 17.9833 31.9717 18.0174C31.2463 18.2844 18.6708 26.225 17.2831 27.1022C17.2019 27.1534 16.9744 27.1204 16.9744 27.1204" fill="white"/>
</g>
<defs>
<linearGradient id="paint0_linear" x1="13.3889" y1="19.9985" x2="38.0086" y2="46.8981" gradientUnits="userSpaceOnUse">
<stop stop-color="#926626"/>
<stop offset="1" stop-color="#FFAF37" stop-opacity="0"/>
</linearGradient>
<clipPath id="clip0">
<rect width="50" height="50" fill="white"/>
</clipPath>
</defs>
</svg>
