<svg width="40" height="40" viewBox="0 0 40 40" fill="none" xmlns="http://www.w3.org/2000/svg">
<g clip-path="url(#clip0)">
<path d="M20.001 40C31.0467 40 40.001 31.0457 40.001 20C40.001 8.9543 31.0467 0 20.001 0C8.95528 0 0.000976562 8.9543 0.000976562 20C0.000976562 31.0457 8.95528 40 20.001 40Z" fill="#FFAF37"/>
<path d="M22.0524 39.8993L10.9375 28.7844L10.8936 28.7111L10.5118 13.7931C10.5118 13.7931 11.6836 9.62891 15.9608 9.62891C20.2379 9.62891 25.733 9.62891 25.733 9.62891C25.733 9.62891 27.6203 10.0564 27.9719 10.753H28.6124L39.9002 22.0407C39.9002 22.0407 39.6688 23.8703 39.4265 24.7641C39.4265 24.7641 38.9406 26.5763 38.5452 27.4887C38.5452 27.4887 38.0118 28.7475 37.6805 29.349C37.6805 29.349 37.4025 29.8891 37.1053 30.3651C37.1053 30.3651 36.6246 31.1322 36.4193 31.4224C36.4193 31.4224 35.9387 32.0912 35.7705 32.3043C35.7705 32.3043 35.3539 32.8373 35.0523 33.1747C35.0523 33.1747 34.6204 33.6635 34.3584 33.929C34.3584 33.929 34.1017 34.2005 33.81 34.4735C33.81 34.4735 32.9027 35.3053 32.505 35.6153C32.505 35.6153 31.0014 36.7472 30.2973 37.1496C30.2973 37.1496 29.2615 37.7568 28.6122 38.0519C28.6122 38.0519 27.3152 38.6277 26.8402 38.7939C26.8402 38.7939 26.343 38.9771 25.9345 39.0996C25.9345 39.0996 25.2998 39.2937 24.9273 39.3851C24.9273 39.3851 24.5282 39.4891 24.1827 39.5602C24.1827 39.5602 23.7341 39.6617 23.2914 39.7309C23.2914 39.7309 22.5898 39.8382 22.3807 39.8622L22.0524 39.8993Z" fill="url(#paint0_linear)"/>
<path d="M25.733 15.535C26.4478 15.535 27.0273 14.9555 27.0273 14.2407C27.0273 13.5258 26.4478 12.9463 25.733 12.9463C25.0181 12.9463 24.4386 13.5258 24.4386 14.2407C24.4386 14.9555 25.0181 15.535 25.733 15.535Z" fill="white"/>
<path d="M20 24.7426C22.6193 24.7426 24.7427 22.6193 24.7427 20C24.7427 17.3807 22.6193 15.2573 20 15.2573C17.3807 15.2573 15.2574 17.3807 15.2574 20C15.2574 22.6193 17.3807 24.7426 20 24.7426Z" stroke="white" stroke-width="2" stroke-miterlimit="10"/>
<path d="M9.97491 23.9262C9.97491 27.4859 12.8607 30.3715 16.4202 30.3715H23.5797C27.1393 30.3715 30.025 27.4859 30.025 23.9262V16.0742C30.025 12.5146 27.1393 9.62891 23.5797 9.62891H16.4202C12.8606 9.62891 9.97491 12.5146 9.97491 16.0742V23.9262Z" stroke="white" stroke-width="2.5" stroke-miterlimit="10"/>
</g>
<defs>
<linearGradient id="paint0_linear" x1="12.6905" y1="14.5875" x2="33.9447" y2="34.9345" gradientUnits="userSpaceOnUse">
<stop stop-color="#926626"/>
<stop offset="1" stop-color="#FFAF37" stop-opacity="0"/>
</linearGradient>
<clipPath id="clip0">
<rect width="40" height="40" fill="white"/>
</clipPath>
</defs>
</svg>
