<svg width="40" height="40" viewBox="0 0 40 40" fill="none" xmlns="http://www.w3.org/2000/svg">
<g clip-path="url(#clip0)">
<path d="M20.001 40C31.0467 40 40.001 31.0457 40.001 20C40.001 8.9543 31.0467 0 20.001 0C8.95528 0 0.000976562 8.9543 0.000976562 20C0.000976562 31.0457 8.95528 40 20.001 40Z" fill="#FFAF37"/>
<path d="M21.4755 39.9933L8.51636 27.0343V12.8491L8.66022 12.6323H31.3399L39.9643 21.2528C39.9643 21.2528 39.8926 22.4153 39.739 23.2522C39.5853 24.0892 39.5957 24.1217 39.4543 24.6801C39.3129 25.2384 39.1274 25.923 38.9725 26.3695C38.8176 26.8159 38.7292 27.085 38.5572 27.4988C38.3852 27.9126 38.2428 28.2519 38.0869 28.5743C37.9308 28.8967 37.8625 29.0488 37.6857 29.3753C37.509 29.7019 37.0022 30.5658 36.7726 30.9272C36.543 31.2886 36.1743 31.8131 35.8973 32.1672C35.6203 32.5212 35.4093 32.7897 35.1819 33.0502C34.9545 33.3108 34.7816 33.5116 34.5424 33.7607C34.3033 34.0098 34.2452 34.0779 33.9907 34.3228C33.7362 34.5678 33.5982 34.7033 33.3703 34.9053C33.1424 35.1073 32.6048 35.5555 32.3473 35.7659C32.0899 35.9762 31.7196 36.2501 31.381 36.4798C31.0424 36.7097 30.2607 37.2145 29.87 37.4309C29.4794 37.6473 28.7821 38.0202 28.3214 38.2244C27.8605 38.4287 27.3374 38.6574 26.8647 38.8235C26.3919 38.9895 26.1328 39.0817 25.6347 39.2282C25.1367 39.3747 24.5392 39.5228 24.1789 39.5959C23.8185 39.6691 23.8193 39.6888 23.4765 39.7458C23.1337 39.8028 22.9792 39.8295 22.7396 39.8608C22.4999 39.8921 22.3198 39.9166 22.0853 39.9395C21.8507 39.9624 21.6723 39.98 21.4755 39.9933Z" fill="url(#paint0_linear)"/>
<path d="M23.0778 20.7085L20 23.2322L16.9223 20.7085L14.4149 22.7645L8.82971 27.3444H20H31.1703L25.5851 22.7645L23.0778 20.7085Z" fill="white"/>
<path d="M15.8252 19.9422L12.1708 16.3959L8.51636 12.8496V19.9423V27.0348L12.1708 23.4884L15.8252 19.9422Z" fill="white"/>
<path d="M20 22.3873L25.67 17.51L31.3399 12.6328H20H8.66028L14.3302 17.51L20 22.3873Z" fill="white"/>
<path d="M27.8293 16.3959L24.1748 19.9422L27.8293 23.4885L31.4837 27.0348V19.9422V12.8496L27.8293 16.3959Z" fill="white"/>
</g>
<defs>
<linearGradient id="paint0_linear" x1="10.8477" y1="17.1143" x2="29.9277" y2="38.7384" gradientUnits="userSpaceOnUse">
<stop stop-color="#926626"/>
<stop offset="1" stop-color="#FFAF37" stop-opacity="0"/>
</linearGradient>
<clipPath id="clip0">
<rect width="40" height="40" fill="white"/>
</clipPath>
</defs>
</svg>
