<svg width="40" height="40" viewBox="0 0 40 40" fill="none" xmlns="http://www.w3.org/2000/svg">
<g clip-path="url(#clip0)">
<path d="M7.62939e-06 20.0002C7.62939e-06 31.046 8.95426 40.0002 20 40.0002C31.0458 40.0002 40.0001 31.046 40.0001 20.0002C40.0001 8.95442 31.0458 0.000162303 20 0.000162303C8.95426 0.000162303 7.62939e-06 8.95442 7.62939e-06 20.0002" fill="#FFAF37"/>
<path d="M23.5415 39.5244L15.9744 28.0446L14 21.2L8.4 19.2C14.8 16 27.6 12.0001 27.6 12.0001C27.6 12.0001 29.2842 10.9558 29.6 11.6001L39.5744 23.0053C39.5744 23.0053 39.3665 24.6977 39.1489 25.5244C39.1489 25.5244 38.7124 27.2007 38.3572 28.0446C38.3572 28.0446 37.878 29.2091 37.5804 29.7654C37.5804 29.7654 37.3307 30.265 37.0637 30.7053C37.0637 30.7053 36.6319 31.4149 36.4474 31.6833C36.4474 31.6833 36.0157 32.3019 35.8646 32.499C35.8646 32.499 35.4904 32.9921 35.2195 33.3041C35.2195 33.3041 34.8315 33.7563 34.5961 34.0019C34.5961 34.0019 34.3655 34.253 34.1035 34.5056C34.1035 34.5056 33.2884 35.275 32.9312 35.5618C32.9312 35.5618 31.5805 36.6087 30.948 36.981C30.948 36.981 30.0175 37.5426 29.4342 37.8156C29.4342 37.8156 28.2691 38.3482 27.8424 38.5019C27.8424 38.5019 27.3957 38.6713 27.0288 38.7847C27.0288 38.7847 26.4586 38.9642 26.124 39.0487C26.124 39.0487 25.7655 39.1449 25.4552 39.2107C25.4552 39.2107 25.0521 39.3046 24.6545 39.3686C24.6545 39.3686 24.0243 39.4679 23.8364 39.4901L23.5415 39.5244Z" fill="url(#paint0_linear)"/>
<path d="M13.5382 21.4619L15.9111 28.0297C15.9111 28.0297 16.2077 28.6439 16.5255 28.6439C16.8433 28.6439 21.5678 23.7287 21.5678 23.7287L26.8221 13.5803L13.6229 19.7668L13.5382 21.4619Z" fill="#C8DAEA"/>
<path d="M16.6843 23.1463L16.2287 27.9873C16.2287 27.9873 16.038 29.4704 17.5211 27.9873C19.0041 26.5043 20.4236 25.3602 20.4236 25.3602" fill="#A9C6D8"/>
<path d="M13.5809 21.6965L8.70036 20.1062C8.70036 20.1062 8.11782 19.8697 8.30494 19.333C8.34358 19.2223 8.42138 19.1282 8.65443 18.9657C9.73613 18.2119 28.6721 11.4057 28.6721 11.4057C28.6721 11.4057 29.2068 11.2257 29.5229 11.3453C29.6674 11.4001 29.7596 11.4619 29.8372 11.6877C29.8655 11.7699 29.8818 11.9446 29.8796 12.1185C29.8779 12.244 29.8626 12.3601 29.8514 12.5423C29.7362 14.4033 26.2853 28.2911 26.2853 28.2911C26.2853 28.2911 26.0789 29.1038 25.339 29.1315C25.0692 29.1416 24.7417 29.0869 24.3502 28.7501C22.8985 27.5013 17.8804 24.1289 16.7717 23.3874C16.709 23.3457 16.6914 23.2913 16.6807 23.2382C16.6651 23.1603 16.7485 23.063 16.7485 23.063C16.7485 23.063 25.4862 15.296 25.7187 14.4811C25.7367 14.4179 25.669 14.3867 25.5773 14.414C24.997 14.6275 14.9366 20.9801 13.8265 21.6818C13.7616 21.7228 13.5795 21.6964 13.5795 21.6964" fill="white"/>
</g>
<defs>
<linearGradient id="paint0_linear" x1="10.7111" y1="15.9988" x2="30.4069" y2="37.5185" gradientUnits="userSpaceOnUse">
<stop stop-color="#926626"/>
<stop offset="1" stop-color="#FFAF37" stop-opacity="0"/>
</linearGradient>
<clipPath id="clip0">
<rect width="40" height="40" fill="white"/>
</clipPath>
</defs>
</svg>
