<svg width="40" height="40" viewBox="0 0 40 40" fill="none" xmlns="http://www.w3.org/2000/svg">
<g clip-path="url(#clip0)">
<path d="M20.004 40C31.0497 40 40.004 31.0457 40.004 20C40.004 8.9543 31.0497 0 20.004 0C8.95833 0 0.00402832 8.9543 0.00402832 20C0.00402832 31.0457 8.95833 40 20.004 40Z" fill="#FFAF37"/>
<path d="M16.0354 39.6003L8.26172 31.8266L10.3945 25.6227C10.3945 25.6227 7.11336 19.8222 10.0429 15.5451C10.0429 15.5451 12.8553 10.1547 16.6051 9.62741C16.6051 9.62741 20.7651 8.04545 23.8118 9.62741C23.8118 9.62741 27.0343 10.9008 27.4444 11.4066H28.1388L39.7718 23.0396C39.7718 23.0396 39.4014 25.0873 39.0464 26.099C39.0464 26.099 38.816 26.8287 38.5823 27.3902C38.5823 27.3902 38.2083 28.2886 38.0249 28.6604C38.0249 28.6604 37.6161 29.4737 37.4662 29.738C37.4662 29.738 36.9892 30.5586 36.8127 30.8283C36.8127 30.8283 35.9505 32.1024 35.5114 32.6244C35.5114 32.6244 34.9678 33.2711 34.78 33.4744C34.78 33.4744 34.2676 34.0183 34.1551 34.1301C34.1551 34.1301 33.5475 34.73 33.1811 35.0433C33.1811 35.0433 32.2413 35.8453 31.6959 36.2242C31.6959 36.2242 30.0553 37.3644 29.0021 37.8559C29.0021 37.8559 27.4167 38.6197 26.4767 38.9166C26.4767 38.9166 24.571 39.5167 23.5988 39.671C23.5988 39.671 22.6923 39.8237 22.3191 39.8639C22.3191 39.8639 21.6466 39.9377 21.2956 39.9575C21.2956 39.9575 20.1758 39.995 19.9373 39.9949C19.9373 39.9949 19.2052 39.9887 18.8919 39.9687C18.8919 39.9687 17.8294 39.8856 17.5202 39.8442C17.5202 39.8442 17.1129 39.7891 17.0359 39.7773C17.0359 39.7773 16.6185 39.71 16.554 39.6986C16.5541 39.6986 16.0509 39.6034 16.0354 39.6003Z" fill="url(#paint0_linear)"/>
<path d="M28.347 11.618C26.1723 9.37934 23.1659 8.16406 20.0959 8.16406C13.5715 8.16406 8.32668 13.4729 8.3907 19.9332C8.3907 21.9798 8.96633 23.9631 9.92578 25.7539L8.2627 31.8304L14.4672 30.2313C16.194 31.1908 18.1129 31.6386 20.0318 31.6386C26.4921 31.6386 31.7372 26.3298 31.7372 19.8692C31.7373 16.735 30.5217 13.7927 28.347 11.618ZM25.1489 28.1843C23.6778 29.1438 21.8866 29.6554 20.0959 29.6554C18.3688 29.6554 16.6419 29.2081 15.1705 28.3124L14.787 28.1206L11.077 29.0801L12.0364 25.4341L11.7807 25.0506C8.96637 20.5089 10.3096 14.4964 14.9148 11.6821C19.5202 8.86781 25.4687 10.2111 28.283 14.8162C31.0976 19.4217 29.7543 25.3704 25.1489 28.1843Z" fill="white"/>
<path d="M25.021 22.236C25.021 22.236 23.9976 21.7881 23.3579 21.4683C23.2939 21.4683 23.23 21.4046 23.1658 21.4046C22.9741 21.4046 22.846 21.4683 22.7183 21.5326C22.7183 21.5326 22.6542 21.5963 21.7588 22.6195C21.6948 22.7475 21.5667 22.8119 21.439 22.8119H21.375C21.3109 22.8119 21.1832 22.7476 21.1192 22.6839L20.7993 22.5558C20.0957 22.236 19.4559 21.8525 18.9444 21.3403C18.8165 21.2128 18.6246 21.0847 18.4966 20.9568C18.0487 20.509 17.6011 19.9973 17.2814 19.4218L17.2173 19.2937C17.1533 19.2297 17.1533 19.1659 17.0893 19.0379C17.0893 18.9099 17.0893 18.7821 17.1534 18.7181C17.1534 18.7181 17.4092 18.3982 17.6012 18.2065C17.7289 18.0784 17.793 17.8866 17.921 17.7586C18.0487 17.5669 18.1128 17.3107 18.0487 17.119C17.9851 16.7992 17.2174 15.0721 17.0257 14.6885C16.8976 14.4964 16.7694 14.4324 16.5778 14.3687H16.386C16.258 14.3687 16.0662 14.3687 15.8742 14.3687C15.7464 14.3687 15.6184 14.4324 15.4903 14.4324L15.4266 14.4964C15.2986 14.5604 15.1705 14.6885 15.0428 14.7522C14.9148 14.8803 14.8507 15.0083 14.723 15.136C14.2751 15.7116 14.0193 16.4153 14.0193 17.119C14.0193 17.6305 14.1473 18.1424 14.3391 18.59L14.4032 18.7821C14.9787 19.9972 15.7464 21.0847 16.7695 22.0442L17.0257 22.2997C17.2174 22.4921 17.4093 22.6195 17.5373 22.8119C18.8806 23.9632 20.4157 24.7945 22.1428 25.2423C22.3345 25.3061 22.5903 25.3061 22.7823 25.3704C22.9742 25.3704 23.23 25.3704 23.4221 25.3704C23.7419 25.3704 24.1254 25.2423 24.3815 25.1143C24.5732 24.9862 24.7014 24.9862 24.8291 24.8581L24.9572 24.7307C25.0848 24.6027 25.2129 24.5383 25.3409 24.4108C25.4687 24.2828 25.5968 24.1547 25.6607 24.0267C25.7885 23.7712 25.8525 23.4513 25.9166 23.1316C25.9166 23.0036 25.9166 22.8117 25.9166 22.6837C25.9165 22.6838 25.8525 22.6195 25.7244 22.5557L25.021 22.236Z" fill="white"/>
</g>
<defs>
<linearGradient id="paint0_linear" x1="10.5977" y1="14.014" x2="32.4345" y2="35.8507" gradientUnits="userSpaceOnUse">
<stop stop-color="#926626"/>
<stop offset="1" stop-color="#FFAF37" stop-opacity="0"/>
</linearGradient>
<clipPath id="clip0">
<rect width="40" height="40" fill="white"/>
</clipPath>
</defs>
</svg>
